<?xml version="1.0" standalone="no"?><!DOCTYPE svg PUBLIC "-//W3C//DTD SVG 1.1//EN" "http://www.w3.org/Graphics/SVG/1.1/DTD/svg11.dtd"><svg t="1543999243986" class="icon" style="" viewBox="0 0 1024 1024" version="1.1" xmlns="http://www.w3.org/2000/svg" p-id="993" xmlns:xlink="http://www.w3.org/1999/xlink" width="200" height="200"><defs><style type="text/css"></style></defs><path d="M987.97857451 472.22081066L538.06222783 49.738387c-13.7169615-13.7169615-38.40749295-13.7169615-52.12445566 0L38.76481707 472.22081066c-10.97356993 8.23017714-10.97356993 21.94713866-2.74339158 30.17731579 8.23017714 8.23017714 21.94713866 10.97356993 32.92070738 0L485.93777217 112.83641139c13.7169615-13.7169615 38.40749295-13.7169615 52.12445566 0l416.9956393 392.30510785c5.48678436 5.48678436 10.97356993 5.48678436 16.4603543 5.48678437 5.48678436 0 10.97356993-2.74339279 16.46035308-8.23017716 8.23017714-5.48678436 8.23017714-21.94713866 0-30.17731579z m-145.39979466 8.23017715c-13.7169615 0-21.94713866 10.97356993-21.94713864 21.94713864v408.76546216c0 13.7169615-10.97356993 24.69053145-24.69053145 24.69053144h-134.42622593c-13.7169615 0-24.69053145-10.97356993-24.69053144-24.69053144v-194.78085754c0-13.7169615-10.97356993-24.69053145-24.69053144-24.69053144h-194.78085754c-13.7169615 0-24.69053145 10.97356993-24.69053144 24.69053144v194.78085754c0 13.7169615-10.97356993 24.69053145-24.69053144 24.69053144h-134.42622593c-13.7169615 0-24.69053145-10.97356993-24.69053023-24.69053144V505.14151924c0-13.7169615-10.97356993-21.94713866-21.94713987-21.94713864-13.7169615 0-21.94713866 10.97356993-21.94713865 21.94713864V960.54465149c0 13.7169615 10.97356993 24.69053145 24.69053144 24.69053144H411.86617905c13.7169615 0 24.69053145-10.97356993 24.69053145-24.69053144v-194.78085754c0-13.7169615 10.97356993-24.69053145 24.69053023-24.69053143h101.50551854c13.7169615 0 24.69053145 10.97356993 24.69053023 24.69053143V960.54465149c0 13.7169615 10.97356993 24.69053145 24.69053145 24.69053144h224.95817455c13.7169615 0 24.69053145-10.97356993 24.69053144-24.69053144V505.14151924c2.74339279-13.7169615-5.48678436-24.69053145-19.20374709-24.69053143z" p-id="994"></path></svg>