<?xml version="1.0" standalone="no"?><!DOCTYPE svg PUBLIC "-//W3C//DTD SVG 1.1//EN" "http://www.w3.org/Graphics/SVG/1.1/DTD/svg11.dtd"><svg t="1543999618680" class="icon" style="" viewBox="0 0 1024 1024" version="1.1" xmlns="http://www.w3.org/2000/svg" p-id="776" xmlns:xlink="http://www.w3.org/1999/xlink" width="200" height="200"><defs><style type="text/css"></style></defs><path d="M694.04444445 2.27555555H75.09333333a72.81777778 72.81777778 0 0 0-72.81777778 72.81777778v728.17777778a72.81777778 72.81777778 0 0 0 72.81777778 72.81777778h236.65777778v-54.61333334H75.09333333a18.20444445 18.20444445 0 0 1-18.20444444-18.20444444V75.09333333a18.20444445 18.20444445 0 0 1 18.20444444-18.20444444h618.95111112a18.20444445 18.20444445 0 0 1 18.20444444 18.20444444v127.43111112h54.61333333V75.09333333a72.81777778 72.81777778 0 0 0-72.81777777-72.81777778z" p-id="777"></path><path d="M948.90666667 147.91111111H329.95555555a72.81777778 72.81777778 0 0 0-72.81777777 72.81777778v728.17777778a72.81777778 72.81777778 0 0 0 72.81777777 72.81777778h618.95111112a72.81777778 72.81777778 0 0 0 72.81777778-72.81777778V220.72888889a72.81777778 72.81777778 0 0 0-72.81777778-72.81777778z m18.20444444 800.99555556a18.20444445 18.20444445 0 0 1-18.20444444 18.20444444H329.95555555a18.20444445 18.20444445 0 0 1-18.20444444-18.20444444V220.72888889a18.20444445 18.20444445 0 0 1 18.20444444-18.20444444h618.95111112a18.20444445 18.20444445 0 0 1 18.20444444 18.20444444z" p-id="778"></path><path d="M402.77333333 748.65777778h473.31555556a18.20444445 18.20444445 0 0 1 18.20444444 18.20444444 18.20444445 18.20444445 0 0 1-18.20444444 18.20444445H402.77333333a18.20444445 18.20444445 0 0 1-18.20444444-18.20444445 18.20444445 18.20444445 0 0 1 18.20444444-18.20444444zM384.56888889 657.63555555a18.20444445 18.20444445 0 0 1-12.92515556-5.27928888 18.20444445 18.20444445 0 0 1 0-25.85031112l163.84-163.84a18.20444445 18.20444445 0 0 1 24.94008889 0l132.16426667 115.59822223 170.02951111-186.95964445a18.20444445 18.20444445 0 0 1 26.94257778 24.39395556l-182.04444445 200.24888889a18.20444445 18.20444445 0 0 1-25.48622222 1.45635555l-132.7104-116.14435555-151.82506666 151.82506667A18.20444445 18.20444445 0 0 1 384.56888889 657.63555555z" p-id="779"></path></svg>