<?xml version="1.0" standalone="no"?><!DOCTYPE svg PUBLIC "-//W3C//DTD SVG 1.1//EN" "http://www.w3.org/Graphics/SVG/1.1/DTD/svg11.dtd"><svg t="1543999277139" class="icon" style="" viewBox="0 0 1024 1024" version="1.1" xmlns="http://www.w3.org/2000/svg" p-id="1335" xmlns:xlink="http://www.w3.org/1999/xlink" width="200" height="200"><defs><style type="text/css"></style></defs><path d="M979.00088889 991.19786667l-98.26986667-103.18506667A233.00551111 233.00551111 0 0 0 827.16444445 544.34702222V215.66577778H596.992V4.55111111H92.33066667v828.08604444h393.94417778c35.88551111 82.75057778 118.32888889 140.78862222 214.15253333 140.78862223a232.22044445 232.22044445 0 0 0 149.04888889-53.99893333L946.93831111 1021.72444445zM136.6016 788.36622222v-739.55555555H552.73244445v434.47182222h44.25955555v-223.34577778h185.93564445v261.95057778a231.99288889 231.99288889 0 0 0-82.50026667-15.08693334c-128.64853333 0-233.31271111 104.67555555-233.31271111 233.31271112A232.59591111 232.59591111 0 0 0 472.17777778 788.36622222z m563.82577778 140.78862223c-104.23182222 0-189.04177778-84.80995555-189.04177778-189.04177778S596.19555555 551.07128889 700.42737778 551.07128889s189.04177778 84.80995555 189.04177777 189.04177778-84.80995555 189.04177778-189.04177777 189.04177778z" p-id="1336"></path><path d="M207.68995555 179.57546667h93.21813334v44.27093333h-93.21813334zM207.68995555 366.02311111h93.21813334v44.27093334h-93.21813334zM207.68995555 552.45937778h93.21813334v44.27093333h-93.21813334zM393.75075555 179.57546667H486.96888889v44.27093333h-93.21813334zM393.75075555 366.02311111H486.96888889v44.27093334h-93.21813334zM393.75075555 552.45937778H486.96888889v44.27093333h-93.21813334zM667.83004445 328.57884445h44.27093333v125.56515555h-44.27093333z" p-id="1337"></path></svg>