<?xml version="1.0" standalone="no"?><!DOCTYPE svg PUBLIC "-//W3C//DTD SVG 1.1//EN" "http://www.w3.org/Graphics/SVG/1.1/DTD/svg11.dtd"><svg t="1544076539752" class="icon" style="" viewBox="0 0 1024 1024" version="1.1" xmlns="http://www.w3.org/2000/svg" p-id="1086" xmlns:xlink="http://www.w3.org/1999/xlink" width="200" height="200"><defs><style type="text/css"></style></defs><path d="M129.311003 830.139792V142.649578c-0.038976-6.964263-5.455723-12.65827-12.279141-12.900983H77.823114c-6.875682 0.124014-12.359751 5.889772-12.278256 12.900983v739.618547c0 7.138768 5.655917 12.908069 12.648526 12.908069h867.539709c6.831391-0.040747 12.410242-5.564678 12.654727-12.523627v-39.994463c-0.122242-7.010325-5.778159-12.607779-12.654727-12.519197H129.311003z m733.315987-585.397591c17.710062 0 31.991142 13.886893 31.991141 32.783944v64.426962c0 18.21409-14.654893 32.861896-31.991141 32.861896H224.993882c-17.465578 0.168304-31.758173-14.131377-31.925591-31.943307-0.005315-0.306491 0-0.612097 0.005315-0.918589V277.52526c0-18.138796 14.65755-32.783945 31.991141-32.783945h637.638423-0.07618zM480.197536 439.847862c17.629453 0 31.767917 13.88955 31.767917 32.859238v64.352554c0.325093 17.807502-13.559142 32.521744-31.021176 32.852152-0.247142 0.003543-0.497827 0.01063-0.747626 0.01063H224.841522c-17.379654 0.166533-31.604927-14.056969-31.778546-31.790062 0-0.356097 0-0.715737 0.01063-1.07272v-64.352554c0-18.207889 13.762879-32.859239 31.767916-32.859238h255.356014z m191.214284 195.107432c17.563017 0 31.844983 13.96573 31.844983 32.858353v64.430505c0 18.137024-14.659322 32.856581-31.844983 32.856582H224.993882c-17.425716 0.213481-31.718311-14.015336-31.925591-31.789177a23.854948 23.854948 0 0 1 0.005315-1.067405v-64.430505c0-18.137024 14.65755-32.858353 31.920276-32.858353h446.417938z" p-id="1087"></path></svg>